<svg xmlns="http://www.w3.org/2000/svg" viewBox="4360 1087 247.375 247.575">
  <defs>
    <style>
      .cls-1 {
        fill: #194a8f;
      }

      .cls-2 {
        fill: #174377;
      }

      .cls-3 {
        fill: #13b4f0;
      }

      .cls-4, .cls-5, .cls-6 {
        fill: #fff;
      }

      .cls-5 {
        font-size: 64.84px;
      }

      .cls-5, .cls-6 {
        font-family: VAGRound, VAG Round;
      }

      .cls-6 {
        font-size: 33px;
      }
    </style>
  </defs>
  <g id="download-link" transform="translate(4358.7 1085.8)">
    <path id="Path_21" data-name="Path 21" class="cls-1" d="M145,202.2a57.1,57.1,0,0,1,72.8-55.1V70.6L148.1,1.2H16.8A15.45,15.45,0,0,0,1.3,16.7V233.2a15.513,15.513,0,0,0,15.5,15.5H168.7A57.382,57.382,0,0,1,145,202.2Zm0,0"/>
    <path id="Path_22" data-name="Path 22" class="cls-2" d="M217.6,70.8H163.7a15.513,15.513,0,0,1-15.5-15.5V1.3Zm0,0"/>
    <g id="Group_3" data-name="Group 3">
      <path id="Path_23" data-name="Path 23" class="cls-3" d="M169.5,235.2a46.386,46.386,0,1,1,65.6,0,46.413,46.413,0,0,1-65.6,0Zm0,0"/>
      <path id="Path_24" data-name="Path 24" class="cls-4" d="M218.6,185.8h0a5.8,5.8,0,0,1,0,8.1l-24.7,24.7a5.8,5.8,0,0,1-8.1,0h0a5.8,5.8,0,0,1,0-8.1l24.7-24.7A5.8,5.8,0,0,1,218.6,185.8Z"/>
      <path id="Path_25" data-name="Path 25" class="cls-4" d="M220.3,189.8h0a5.784,5.784,0,0,1-5.7,5.8H194.8a5.72,5.72,0,0,1-5.7-5.8h0a5.784,5.784,0,0,1,5.7-5.8h19.8A5.784,5.784,0,0,1,220.3,189.8Z"/>
      <path id="Path_26" data-name="Path 26" class="cls-4" d="M214.7,184.1h0a5.8,5.8,0,0,0-5.8,5.8v19.3a5.8,5.8,0,0,0,5.8,5.8h0a5.72,5.72,0,0,0,5.7-5.8V189.9A5.784,5.784,0,0,0,214.7,184.1Z"/>
    </g>
    <text id="PSE" class="cls-5" transform="translate(52.517 149.652)"><tspan x="0" y="0">PSE</tspan></text>
    <text id="EDGE" class="cls-6" transform="translate(52.3 193.2)"><tspan x="0" y="0">EDGE</tspan></text>
  </g>
</svg>
