<svg xmlns="http://www.w3.org/2000/svg" viewBox="3797 1087 247.4 247.6">
  <defs>
    <style>
      .cls-1 {
        fill: #194a8f;
      }

      .cls-2 {
        fill: #174377;
      }

      .cls-3 {
        fill: #13b4f0;
      }

      .cls-4, .cls-5 {
        fill: #fff;
      }

      .cls-5 {
        font-size: 64.55px;
        font-family: VAGRound, VAG Round;
      }
    </style>
  </defs>
  <g id="download-doc" transform="translate(3795.7 1085.8)">
    <path id="Path_1" data-name="Path 1" class="cls-1" d="M145,202.2a57.1,57.1,0,0,1,72.8-55.1V70.6L148.1,1.2H16.8A15.45,15.45,0,0,0,1.3,16.7V233.2a15.513,15.513,0,0,0,15.5,15.5H168.7A57.382,57.382,0,0,1,145,202.2Zm0,0"/>
    <path id="Path_2" data-name="Path 2" class="cls-2" d="M217.6,70.8H163.7a15.513,15.513,0,0,1-15.5-15.5V1.3Zm0,0"/>
    <g id="Group_1" data-name="Group 1">
      <path id="Path_3" data-name="Path 3" class="cls-3" d="M202.3,156a46.4,46.4,0,1,1-46.4,46.4A46.433,46.433,0,0,1,202.3,156Zm0,0"/>
      <path id="Path_4" data-name="Path 4" class="cls-4" d="M202.5,225.7h0a5.8,5.8,0,0,1-5.8-5.8v-35a5.8,5.8,0,0,1,5.8-5.8h0a5.72,5.72,0,0,1,5.7,5.8v35A5.657,5.657,0,0,1,202.5,225.7Z"/>
      <path id="Path_5" data-name="Path 5" class="cls-4" d="M198.6,224.1h0a5.8,5.8,0,0,1,0-8.1l14-14a5.8,5.8,0,0,1,8.1,0h0a5.8,5.8,0,0,1,0,8.1l-14,14A5.8,5.8,0,0,1,198.6,224.1Z"/>
      <path id="Path_6" data-name="Path 6" class="cls-4" d="M206.5,224.1h0a5.8,5.8,0,0,0,0-8.1l-13.6-13.6a5.8,5.8,0,0,0-8.1,0h0a5.8,5.8,0,0,0,0,8.1l13.6,13.6A5.8,5.8,0,0,0,206.5,224.1Z"/>
    </g>
    <text id="DOC" class="cls-5" transform="translate(36.5 151.064)"><tspan x="0" y="0">DOC</tspan></text>
  </g>
</svg>
