<svg xmlns="http://www.w3.org/2000/svg" viewBox="4081 1097 244.4 191.4">
  <defs>
    <style>
      .cls-1 {
        fill: #9ce0ff;
      }

      .cls-2 {
        fill: #80d440;
      }

      .cls-3 {
        fill: #62c418;
      }

      .cls-4 {
        fill: #5f961d;
      }

      .cls-5 {
        fill: #5f971d;
      }

      .cls-6 {
        fill: #194a8f;
      }

      .cls-7 {
        fill: #ffe53c;
      }

      .cls-8 {
        fill: #f3d933;
      }

      .cls-9 {
        fill: #c39215;
      }

      .cls-10 {
        fill: #13b4f0;
      }

      .cls-11 {
        fill: #fff;
      }
    </style>
  </defs>
  <g id="download-img" transform="translate(4078.2 1067.7)">
    <path id="Path_7" data-name="Path 7" class="cls-1" d="M204.8,34.2a19.8,19.8,0,0,1,19.7,19.7v138a19.8,19.8,0,0,1-19.7,19.7H27.4A19.8,19.8,0,0,1,7.7,191.9V53.9A19.8,19.8,0,0,1,27.4,34.2H204.8Zm0,0"/>
    <path id="Path_8" data-name="Path 8" class="cls-2" d="M222.1,135.7l-29.3-29.3a4.717,4.717,0,0,0-6.9,0L126.2,165l-37-34.7L15.8,208.4h207Zm0,0"/>
    <path id="Path_9" data-name="Path 9" class="cls-3" d="M125.5,162.8l-32.3-31a4.718,4.718,0,0,0-6.9,0L10.2,206.7H84.1Zm0,0"/>
    <path id="Path_10" data-name="Path 10" class="cls-4" d="M97.7,196.8a4.635,4.635,0,0,1-3.4-1.5,4.717,4.717,0,0,1,0-6.9l4.9-4.9a4.879,4.879,0,0,1,6.9,6.9l-4.9,4.9a5.206,5.206,0,0,1-3.5,1.5Zm0,0"/>
    <path id="Path_11" data-name="Path 11" class="cls-4" d="M15.6,206.2a5.023,5.023,0,0,1-3.5-1.5,4.715,4.715,0,0,1,0-6.9l71.2-70a9.651,9.651,0,0,1,6.9-3,9.167,9.167,0,0,1,6.9,3l28.6,28.6a4.879,4.879,0,1,1-6.9,6.9L90.2,134.7,19,204.7a4.635,4.635,0,0,1-3.4,1.5Zm0,0"/>
    <path id="Path_12" data-name="Path 12" class="cls-5" d="M112.9,181.3a4.635,4.635,0,0,1-3.4-1.5,4.717,4.717,0,0,1,0-6.9l72.9-72.4a9.6,9.6,0,0,1,13.8,0l29.3,29.3a4.879,4.879,0,1,1-6.9,6.9l-29.3-29.3-72.9,72.4a4.852,4.852,0,0,1-3.5,1.5Zm0,0"/>
    <path id="Path_13" data-name="Path 13" class="cls-6" d="M204.8,216.5H27.4A24.646,24.646,0,0,1,2.8,191.9V53.9A24.646,24.646,0,0,1,27.4,29.3H204.8a24.646,24.646,0,0,1,24.6,24.6v138a24.519,24.519,0,0,1-24.6,24.6ZM27.4,39.1A14.9,14.9,0,0,0,12.6,53.9v138a14.9,14.9,0,0,0,14.8,14.8H204.8a14.831,14.831,0,0,0,14.8-14.8V53.9a14.9,14.9,0,0,0-14.8-14.8H27.4Zm0,0"/>
    <path id="Path_14" data-name="Path 14" class="cls-7" d="M71.8,83.5A14.8,14.8,0,1,1,57,68.7,14.767,14.767,0,0,1,71.8,83.5Zm0,0"/>
    <path id="Path_15" data-name="Path 15" class="cls-8" d="M57,98.3a14.8,14.8,0,0,0,0-29.6V98.3Zm0,0"/>
    <path id="Path_16" data-name="Path 16" class="cls-9" d="M57,103.2A19.7,19.7,0,1,1,76.7,83.5,19.8,19.8,0,0,1,57,103.2Zm0-29.6a9.9,9.9,0,1,0,9.9,9.9A9.923,9.923,0,0,0,57,73.6Zm0,0"/>
    <g id="Group_2" data-name="Group 2">
      <path id="Path_17" data-name="Path 17" class="cls-10" d="M205,136.3a42.2,42.2,0,1,1-42.2,42.2A42.208,42.208,0,0,1,205,136.3Zm0,0"/>
      <path id="Path_18" data-name="Path 18" class="cls-11" d="M206,199.7h-1.6a4.439,4.439,0,0,1-4.4-4.4V161.8a4.439,4.439,0,0,1,4.4-4.4H206a4.439,4.439,0,0,1,4.4,4.4v33.5A4.439,4.439,0,0,1,206,199.7Z"/>
      <path id="Path_19" data-name="Path 19" class="cls-11" d="M202.1,198.8l-1.1-1.1a4.528,4.528,0,0,1,0-6.3l13.9-13.9a4.528,4.528,0,0,1,6.3,0l1.1,1.1a4.528,4.528,0,0,1,0,6.3l-13.9,13.9A4.528,4.528,0,0,1,202.1,198.8Z"/>
      <path id="Path_20" data-name="Path 20" class="cls-11" d="M208.2,198.8l1.1-1.1a4.528,4.528,0,0,0,0-6.3l-13.6-13.6a4.528,4.528,0,0,0-6.3,0l-1.1,1.1a4.528,4.528,0,0,0,0,6.3l13.6,13.6A4.528,4.528,0,0,0,208.2,198.8Z"/>
    </g>
  </g>
</svg>
